<svg xmlns="http://www.w3.org/2000/svg" width="237" height="167" viewBox="0 0 237 167">
  <g id="Gruppe_6" data-name="Gruppe 6" transform="translate(-47 -61)">
    <text id="Access_Management_Panel" data-name="Access
Management
Panel" transform="translate(47 98)" fill="#878991" font-size="40" font-family="Roboto-Bold, Roboto" font-weight="700"><tspan x="0" y="0">Access</tspan><tspan x="0" y="60">Management</tspan><tspan x="0" y="120">Panel</tspan></text>
    <path id="Icon_awesome-id-card" data-name="Icon awesome-id-card" d="M31.319,2.25H2.847A2.844,2.844,0,0,0,0,5.089v.946H34.166V5.089A2.844,2.844,0,0,0,31.319,2.25ZM0,25.911A2.844,2.844,0,0,0,2.847,28.75H31.319a2.844,2.844,0,0,0,2.847-2.839V7.929H0ZM20.879,12.188a.475.475,0,0,1,.475-.473H29.9a.475.475,0,0,1,.475.473v.946a.475.475,0,0,1-.475.473H21.354a.475.475,0,0,1-.475-.473Zm0,3.786a.475.475,0,0,1,.475-.473H29.9a.475.475,0,0,1,.475.473v.946a.475.475,0,0,1-.475.473H21.354a.475.475,0,0,1-.475-.473Zm0,3.786a.475.475,0,0,1,.475-.473H29.9a.475.475,0,0,1,.475.473v.946a.475.475,0,0,1-.475.473H21.354a.475.475,0,0,1-.475-.473ZM10.44,11.714a3.786,3.786,0,1,1-3.8,3.786A3.794,3.794,0,0,1,10.44,11.714ZM3.98,23.793a3.8,3.8,0,0,1,3.612-2.615h.486a6.125,6.125,0,0,0,4.722,0h.486A3.8,3.8,0,0,1,16.9,23.793a.932.932,0,0,1-.925,1.171H4.905A.934.934,0,0,1,3.98,23.793Z" transform="translate(160 189.75)" fill="none" stroke="#d9604e" stroke-width="2"/>
  </g>
</svg>
