<svg xmlns="http://www.w3.org/2000/svg" width="294.986" height="294.986" viewBox="0 0 294.986 294.986">
  <path id="Icon_material-not-interested" data-name="Icon material-not-interested" d="M150.493,3A147.493,147.493,0,1,0,297.986,150.493,147.547,147.547,0,0,0,150.493,3Zm0,265.487A117.962,117.962,0,0,1,32.5,150.493,116.554,116.554,0,0,1,57.425,78.221L222.764,243.561A116.554,116.554,0,0,1,150.493,268.487Zm93.068-45.723L78.221,57.425A116.554,116.554,0,0,1,150.493,32.5,117.962,117.962,0,0,1,268.487,150.493,116.554,116.554,0,0,1,243.561,222.764Z" transform="translate(-3 -3)" fill="#f6f4f2"/>
</svg>
